<?xml version="1.0" encoding="utf-8"?>
<!-- Generator: Adobe Illustrator 26.0.3, SVG Export Plug-In . SVG Version: 6.00 Build 0)  -->
<svg version="1.1" id="Layer_1" xmlns="http://www.w3.org/2000/svg" xmlns:xlink="http://www.w3.org/1999/xlink" x="0px" y="0px"
	 viewBox="0 0 792 1496" style="enable-background:new 0 0 792 1496;" xml:space="preserve">
<style type="text/css">
	.st0{fill:none;stroke:#199046;stroke-width:55;stroke-miterlimit:10;}
</style>
<path class="st0" d="M443.1,1390.5c-61.7,0-111.9-50.2-111.9-111.9v-36.4c0-37.9-30.9-68.8-68.8-68.8h-33.8
	c-60.3,0-109.6-49-110-109.3l-4-741.6c-0.1-11.4,9.1-20.7,20.5-20.7c0,0,0.1,0,0.1,0c11.3,0,20.5,9.2,20.6,20.5l4,741.6
	c0.3,37.7,31.1,68.3,68.8,68.3h33.8c60.7,0,110,49.4,110,110v36.4c0,39,31.7,70.7,70.7,70.7s70.7-31.7,70.7-70.7V1115
	c0-37.9-30.9-68.8-68.8-68.8h-34.5c-60.7,0-110-49.4-110-110V209.5c0-60.7,49.4-110,110-110h3.3c60.7,0,110,49.4,110,110v562.1
	c0,37.9,30.9,68.8,68.8,68.8s68.8-30.9,68.8-68.8V624.3c0-11.4,9.2-20.6,20.6-20.6s20.6,9.2,20.6,20.6v147.3
	c0,60.7-49.4,110-110,110c-60.7,0-110-49.4-110-110V209.5c0-37.9-30.9-68.8-68.8-68.8h-3.3c-37.9,0-68.8,30.9-68.8,68.8v726.7
	c0,37.9,30.9,68.8,68.8,68.8H445c60.7,0,110,49.4,110,110v163.6C555,1340.3,504.8,1390.5,443.1,1390.5z"/>
</svg>
